<svg xmlns="http://www.w3.org/2000/svg" viewBox="0 0 32 32" fill="none">
  <defs>
    <linearGradient id="rLogoGradient" x1="0%" y1="0%" x2="100%" y2="100%">
      <stop offset="0%" stop-color="#2563EB"/>
      <stop offset="100%" stop-color="#3B82F6"/>
    </linearGradient>
  </defs>
  <!-- Background app plate icon -->
  <rect width="32" height="32" rx="8" fill="rgba(37, 99, 235, 0.06)" stroke="rgba(37, 99, 235, 0.12)" stroke-width="1"/>
  
  <!-- Waypoint start circle -->
  <circle cx="8.75" cy="24" r="3" fill="url(#rLogoGradient)" stroke="#FFFFFF" stroke-width="1"/>
  
  <!-- Loop & Stem path -->
  <path d="M8.75 8H17C20.866 8 24 11.134 24 15C24 18.866 20.866 22 17 22H8.75V18.5H17C18.933 18.5 20.5 16.933 20.5 15C20.5 13.067 18.933 11.5 17 11.5H8.75V8Z" fill="url(#rLogoGradient)"/>
  <rect x="7" y="8" width="3.5" height="16" rx="1.75" fill="url(#rLogoGradient)"/>

  <!-- Diagonal leg route line -->
  <path d="M15.5 20.5 L20.5 27" stroke="url(#rLogoGradient)" stroke-width="3.5" stroke-linecap="round"/>

  <!-- Destination Waypoint Pin -->
  <path d="M21.5 21C19.5 21 18 22.5 18 24.5C18 27.5 21.5 31 21.5 31C21.5 31 25 27.5 25 24.5C25 22.5 23.5 21 21.5 21Z" fill="url(#rLogoGradient)"/>
  <circle cx="21.5" cy="24.5" r="1.5" fill="#FFFFFF"/>
</svg>